<svg xmlns="http://www.w3.org/2000/svg" viewBox="0 0 512 512">
  <path fill="currentColor" d="M256 0C114.64 0 0 114.64 0 256s114.64 256 256 256 256-114.64 256-256S397.36 0 256 0zm0 480c-119.103 0-216-96.897-216-216S136.897 48 256 48s216 96.897 216 216-96.897 216-216 216z"/><path fill="currentColor" d="M256 144c-30.928 0-56 25.072-56 56s25.072 56 56 56 56-25.072 56-56-25.072-56-56-56zm0 80c-13.232 0-24-10.768-24-24s10.768-24 24-24 24 10.768 24 24-10.768 24-24 24z"/><circle fill="currentColor" cx="344" cy="168" r="8"/><circle fill="currentColor" cx="368" cy="216" r="8"/><circle fill="currentColor" cx="328" cy="216" r="8"/><path fill="currentColor" d="M301.063 347.818c-4.096-4.096-10.74-4.096-14.837 0-4.096 4.096-4.096 10.74 0 14.837l58.925 58.925c4.096 4.096 10.74 4.096 14.837 0s4.096-10.74 0-14.837L301.063 347.818z"/></svg>
